<svg width="279" height="81" viewBox="0 0 279 81" fill="none" xmlns="http://www.w3.org/2000/svg">
<path d="M0 72.2448L13.5237 64.0619L13.4255 81L59.5301 52.5088L52.8061 50.1176L19.9908 69.4431V60.1531L44.6079 45.2598L13.5237 24.6276V32.2494L32.6225 44.9774L19.9908 52.618V43.8891L13.5237 39.6113V56.5305L6.46327 60.8008V11.4854L53.3654 39.9615L59.5301 36.2335L0 0V72.2448Z" fill="white"/>
<path d="M108.887 31.3916C108.669 32.4191 107.725 34.6397 103.67 34.8156V31.3916H108.887Z" fill="#FD6200"/>
<path d="M139.59 31.3916C139.37 32.4191 138.425 34.6397 134.37 34.8156V31.3916H139.59Z" fill="#FD6200"/>
<path d="M108.956 39.1605V53.1115H103.67V34.8159C104.384 34.8952 105.066 35.078 105.694 35.3538C106.373 35.6504 107.042 36.1055 107.676 36.7055C108.266 37.2641 108.694 38.0882 108.952 39.164L108.956 39.1605Z" fill="white"/>
<path d="M139.656 39.1605V53.1115H134.37V34.8159C135.087 34.8952 135.767 35.078 136.394 35.3538C137.077 35.6504 137.742 36.1055 138.38 36.7055C138.97 37.2641 139.397 38.0882 139.656 39.164V39.1605Z" fill="white"/>
<path d="M162.484 31.3916V35.8948H155.664V53.1112H150.378V35.8948H143.589V31.3916H162.484Z" fill="white"/>
<path d="M176.43 31.2295H171.031L161.814 53.1111H167.297L168.921 49.0182H178.413L180.037 53.1111H185.681L176.43 31.2295ZM170.365 45.1322L173.686 36.812L176.961 45.1322H170.365Z" fill="white"/>
<path d="M205.456 48.6045V53.1112H189.161V31.3916H194.447V48.6045H205.456Z" fill="white"/>
<path d="M251.551 45.4668L252.124 45.2254C253.461 44.6599 254.537 43.822 255.323 42.7462C255.713 42.2152 256.003 41.6049 256.199 40.9256C256.396 40.2463 256.492 39.4946 256.492 38.6774V38.6119C256.492 36.5465 255.882 34.9328 254.627 33.6777C253.927 32.9777 252.996 32.4157 251.862 32.0088C250.707 31.5985 249.269 31.3916 247.583 31.3916H237.339V53.1112H242.625V46.2253H246.2L250.779 53.1112H256.789L251.558 45.4668H251.551ZM251.206 39.0981C251.206 40.0774 250.844 40.8704 250.127 41.4566C249.441 42.0186 248.496 42.3014 247.321 42.3014H242.621V35.7948H247.29C248.434 35.7948 249.372 36.0603 250.076 36.5775C250.827 37.1327 251.21 37.9568 251.21 39.0326V39.0981H251.206Z" fill="white"/>
<path d="M278.245 35.6879C277.835 34.7776 277.245 33.9984 276.483 33.3674C275.715 32.7329 274.777 32.2398 273.687 31.9054C272.584 31.564 271.325 31.3916 269.957 31.3916H260.688V53.1112H265.974V46.615H269.632C270.984 46.615 272.246 46.446 273.387 46.1184C274.508 45.7943 275.487 45.2978 276.297 44.6496C277.101 44.0082 277.735 43.1979 278.183 42.2462C278.638 41.2911 278.866 40.167 278.866 38.9085V38.8464C278.866 37.6706 278.659 36.6086 278.245 35.6948V35.6879ZM273.615 39.1981C273.615 40.2636 273.225 41.1256 272.46 41.7635C271.722 42.3807 270.725 42.6945 269.501 42.6945H265.974V35.6672H269.47C270.705 35.6672 271.705 35.9534 272.443 36.5224C273.222 37.1189 273.615 37.9982 273.615 39.136V39.1981Z" fill="white"/>
<path d="M128.832 31.3916V45.3047C128.832 46.6701 128.656 47.8597 128.311 48.839C127.966 49.801 127.439 50.6458 126.742 51.3458C125.308 52.7802 123.332 53.5043 120.867 53.5043C119.916 53.5043 119.047 53.4112 118.292 53.2284C117.533 53.0457 116.84 52.7871 116.233 52.4595C115.623 52.1354 115.075 51.7492 114.599 51.3147C114.226 50.9734 113.882 50.6113 113.564 50.2286L116.902 47.077C117.378 47.5942 117.854 48.0115 118.326 48.3287C118.96 48.7493 119.695 48.9666 120.509 48.9666C121.436 48.9666 122.195 48.639 122.757 47.9977C123.305 47.3736 123.581 46.4564 123.581 45.2771V31.395H128.832V31.3916Z" fill="white"/>
<path d="M232.853 31.3916C232.626 32.6329 231.498 35.6948 225.885 35.6948H215.638V31.3916H232.85H232.853Z" fill="white"/>
<path d="M227.157 40.0952H215.638V44.4019H227.157V40.0952Z" fill="white"/>
<path d="M232.908 48.8042H215.638V53.1109H232.908V48.8042Z" fill="white"/>
<path d="M99.2409 42.1221V42.1842C99.2409 43.7565 98.9582 45.2254 98.4065 46.5529C97.8514 47.877 97.0411 49.0355 95.9964 49.9976C94.9482 50.963 93.638 51.732 92.1106 52.2802C90.5693 52.8319 88.7937 53.1112 86.8249 53.1112H81.9736V48.539H87.018C89.0419 48.539 90.6935 47.9942 91.9313 46.9218C93.1898 45.8288 93.8277 44.2703 93.8277 42.2842V42.2186C93.8277 40.2325 93.1898 38.6705 91.9347 37.5672C90.6969 36.481 89.0419 35.9293 87.018 35.9293H81.9736V31.3916H86.9559C88.9005 31.3916 90.6659 31.6571 92.1968 32.1881C93.7139 32.7157 95.0103 33.4605 96.0481 34.4052C97.0791 35.3466 97.879 36.4844 98.4203 37.7809C98.9651 39.0878 99.2409 40.5463 99.2409 42.1186V42.1221Z" fill="white"/>
</svg>
